<svg id="Layer_1" data-name="Layer 1" xmlns="http://www.w3.org/2000/svg" viewBox="0 0 145 61"><defs><style>.cls-1{fill:#ff9c30;}.cls-2{fill:#ff6219;}.cls-3{fill:#352c26;}</style></defs><path class="cls-1" d="M84.7,23.55,92,16.21l18.31,18.26s-11.91,2.8-18.93-4.25Z"/><path class="cls-1" d="M96.34,11.88,108.25,0,144,35.71s-19.25,4.53-30.66-6.88Z"/><path class="cls-2" d="M103.25,18.81c11.91-11.91,27.34,3.56,27.34,3.56L108.25,0,92.07,16.21l1.43-1.45L82.87,25.4l-1.81,1.79h0l-3.47,3.46-2.92,2.9c6.91,6.91,13.48.34,13.48.34L92,30.06c7.28-6.61,16.47,2.58,16.47,2.58L99,23.12Z"/><path class="cls-3" d="M1,40.77a.27.27,0,0,1,.3-.3H8.82A6.68,6.68,0,0,1,13.58,42a5.11,5.11,0,0,1,1.55,3.91,4.77,4.77,0,0,1-.7,2.75,4.43,4.43,0,0,1-1.65,1.53v.06a3.29,3.29,0,0,1,1,.57,4.32,4.32,0,0,1,.87,1,5.87,5.87,0,0,1,.64,1.33,5.6,5.6,0,0,1,.25,1.69,5.42,5.42,0,0,1-1.82,4.49,8,8,0,0,1-5.14,1.46H1.3a.27.27,0,0,1-.3-.3Zm7.74,8.12a3,3,0,0,0,2.11-.72,2.82,2.82,0,0,0,0-3.87,2.94,2.94,0,0,0-2.11-.73h-4a.16.16,0,0,0-.18.18v5c0,.11.06.17.18.17ZM4.51,57.43a.16.16,0,0,0,.18.18H8.91a3.14,3.14,0,0,0,2.28-.77A2.73,2.73,0,0,0,12,54.79a2.7,2.7,0,0,0-.79-2A3.14,3.14,0,0,0,8.91,52H4.69a.16.16,0,0,0-.18.18Z"/><path class="cls-3" d="M19.3,60.71a.27.27,0,0,1-.3-.3V46.66a.26.26,0,0,1,.3-.29H22a.26.26,0,0,1,.3.29v1.22h0a3.85,3.85,0,0,1,1.43-1.34,4.79,4.79,0,0,1,2.29-.5,4.36,4.36,0,0,1,1.65.31,3.94,3.94,0,0,1,1.36.88.3.3,0,0,1,.06.41l-1.58,2a.27.27,0,0,1-.42.06,4.79,4.79,0,0,0-1-.51A3.25,3.25,0,0,0,25,49,2.31,2.31,0,0,0,23,50a4.71,4.71,0,0,0-.64,2.67v7.77a.27.27,0,0,1-.3.3Z"/><path class="cls-3" d="M39.59,60.71a.27.27,0,0,1-.3-.3v-1h0a3.61,3.61,0,0,1-1.52,1.2,6,6,0,0,1-2.53.46,6.56,6.56,0,0,1-1.85-.26,4.6,4.6,0,0,1-1.54-.8,4,4,0,0,1-1-1.35,4.49,4.49,0,0,1-.39-1.95,4,4,0,0,1,1.54-3.44,7.11,7.11,0,0,1,4.21-1.09h2.91a.16.16,0,0,0,.18-.18v-.69a2.31,2.31,0,0,0-.68-1.84,4,4,0,0,0-2.5-.57,5.88,5.88,0,0,0-2,.29,4.25,4.25,0,0,0-1.27.7q-.27.21-.42-.06l-1.1-2a.25.25,0,0,1,.06-.38,7.21,7.21,0,0,1,2.08-1,10.29,10.29,0,0,1,3-.38c2.19,0,3.73.4,4.63,1.19A4.82,4.82,0,0,1,42.38,51v9.37c0,.2-.09.3-.29.3Zm-3.54-2.38a3.93,3.93,0,0,0,2.36-.6,2.12,2.12,0,0,0,.82-1.84v-1.1a.16.16,0,0,0-.18-.18H36.67a4.59,4.59,0,0,0-2.35.46,1.62,1.62,0,0,0-.74,1.47C33.58,57.73,34.4,58.33,36.05,58.33Z"/><path class="cls-3" d="M55.68,60.71a.26.26,0,0,1-.29-.3V52.14a3.5,3.5,0,0,0-.69-2.26,2.41,2.41,0,0,0-2-.87,2.46,2.46,0,0,0-2,.87,3.4,3.4,0,0,0-.72,2.26v8.27a.27.27,0,0,1-.3.3H46.91a.27.27,0,0,1-.3-.3V46.66a.26.26,0,0,1,.3-.29h2.73a.26.26,0,0,1,.3.29v1h0a3.93,3.93,0,0,1,1.42-1.17A5,5,0,0,1,53.75,46a5.06,5.06,0,0,1,2.07.4,4.75,4.75,0,0,1,2.56,2.8,6.5,6.5,0,0,1,.34,2.12v9a.27.27,0,0,1-.3.3Z"/><path class="cls-3" d="M71.75,60.71a.27.27,0,0,1-.3-.3V59.34h0A3.84,3.84,0,0,1,70,60.56a5.25,5.25,0,0,1-2.38.47,5.4,5.4,0,0,1-3.12-.86,4.75,4.75,0,0,1-1.84-2.59,9.66,9.66,0,0,1-.39-1.71,22.78,22.78,0,0,1,0-4.67,9.86,9.86,0,0,1,.39-1.71,4.79,4.79,0,0,1,1.84-2.59A5.48,5.48,0,0,1,67.61,46a5.25,5.25,0,0,1,2.38.47,3.84,3.84,0,0,1,1.43,1.22h0v-7a.27.27,0,0,1,.3-.3h2.74a.26.26,0,0,1,.29.3V60.41a.26.26,0,0,1-.29.3Zm-3.27-2.65a2.53,2.53,0,0,0,2.67-1.85,6.66,6.66,0,0,0,.23-1.1,13.19,13.19,0,0,0,.07-1.57A13.38,13.38,0,0,0,71.38,52a6.88,6.88,0,0,0-.23-1.1,2.84,2.84,0,0,0-5.32,0,6.9,6.9,0,0,0-.22,1.1,13,13,0,0,0-.08,1.58,12.86,12.86,0,0,0,.08,1.57,6.69,6.69,0,0,0,.22,1.1A2.52,2.52,0,0,0,68.48,58.06Z"/><path class="cls-3" d="M79.19,40.77a.26.26,0,0,1,.29-.3h2.65a.49.49,0,0,1,.51.3L88.2,53.24h.12l5.47-12.47a.5.5,0,0,1,.51-.3h2.62a.27.27,0,0,1,.3.3V60.41a.27.27,0,0,1-.3.3H94.33a.27.27,0,0,1-.3-.3V48h-.11l-4.29,9.52a.59.59,0,0,1-.56.39H87.34a.6.6,0,0,1-.57-.39L82.49,48h-.12V60.41a.27.27,0,0,1-.3.3H79.48a.26.26,0,0,1-.29-.3Z"/><path class="cls-3" d="M110.16,60.71a.27.27,0,0,1-.3-.3v-1h0a3.61,3.61,0,0,1-1.52,1.2,6,6,0,0,1-2.52.46,6.58,6.58,0,0,1-1.86-.26,4.6,4.6,0,0,1-1.54-.8,4,4,0,0,1-1-1.35,4.49,4.49,0,0,1-.38-1.95,4,4,0,0,1,1.53-3.44,7.11,7.11,0,0,1,4.21-1.09h2.91a.16.16,0,0,0,.18-.18v-.69a2.31,2.31,0,0,0-.68-1.84,4,4,0,0,0-2.5-.57,5.81,5.81,0,0,0-2,.29,4.19,4.19,0,0,0-1.28.7q-.27.21-.42-.06l-1.1-2a.25.25,0,0,1,.06-.38,7.21,7.21,0,0,1,2.08-1,10.36,10.36,0,0,1,3-.38c2.18,0,3.72.4,4.62,1.19A4.83,4.83,0,0,1,113,51v9.37a.27.27,0,0,1-.3.3Zm-3.54-2.38a3.93,3.93,0,0,0,2.36-.6,2.12,2.12,0,0,0,.82-1.84v-1.1a.16.16,0,0,0-.18-.18h-2.38a4.59,4.59,0,0,0-2.35.46,1.62,1.62,0,0,0-.74,1.47C104.15,57.73,105,58.33,106.62,58.33Z"/><path class="cls-3" d="M117.48,60.71a.27.27,0,0,1-.3-.3V46.66a.26.26,0,0,1,.3-.29h2.74a.26.26,0,0,1,.29.29v1.22h0A3.85,3.85,0,0,1,122,46.54a4.79,4.79,0,0,1,2.29-.5,4.36,4.36,0,0,1,1.65.31,3.94,3.94,0,0,1,1.36.88.3.3,0,0,1,.06.41l-1.58,2a.27.27,0,0,1-.42.06,4.57,4.57,0,0,0-1-.51,3.25,3.25,0,0,0-1.1-.18,2.31,2.31,0,0,0-2.07,1,4.79,4.79,0,0,0-.64,2.67v7.77a.26.26,0,0,1-.29.3Z"/><path class="cls-3" d="M139.14,60.71a.54.54,0,0,1-.48-.3l-3.63-6-1.93,2.23v3.78a.27.27,0,0,1-.3.3h-2.74a.27.27,0,0,1-.3-.3V40.77a.27.27,0,0,1,.3-.3h2.74a.27.27,0,0,1,.3.3V52.43L138,46.66a.77.77,0,0,1,.56-.29h3c.1,0,.15,0,.17.1a.2.2,0,0,1-.05.19l-4.56,5.24,5.24,8.51a.21.21,0,0,1,0,.19c0,.07-.08.11-.18.11Z"/></svg>